<svg height="60pt" viewBox="0 -31 512.00095 512" width="75pt" xmlns="http://www.w3.org/2000/svg"><path d="m496.972656 345.039062h-103.886718l-32.097657 29.996094-35.996093-29.996094h-167.980469l33.597656-59.996093h100.785156l37.199219-29.996094 31.496094 29.996094h50.09375l-94.1875-173.980469-25.796875 47.394531-56.695313-18.898437 22.496094-43.792969 46.796875-87.890625c5.699219-10.5 20.695313-10.5 26.394531 0l180.980469 314.964844c5.398437 10.199218-1.800781 22.199218-13.199219 22.199218zm0 0" fill="#dc9e00"/><path d="m496.972656 345.039062h-103.886718l-32.097657 29.996094-35.996093-29.996094h-68.992188v-59.996093h35.394531l37.199219-29.996094 31.496094 29.996094h50.09375l-94.1875-173.980469-25.796875 47.394531-34.199219-11.398437v-51.292969l46.796875-87.890625c5.699219-10.5 20.695313-10.5 26.394531 0l180.980469 314.964844c5.398437 10.199218-1.800781 22.199218-13.199219 22.199218zm0 0" fill="#c48905"/><path d="m360.085938 285.042969h-68.691407l-35.394531-63.292969h-46.195312l12-63.292969-25.796876-47.394531-94.191406 173.980469h80.09375l-32.996094 59.996093h-133.886718c-11.398438 0-18.597656-12-13.199219-22.199218l180.980469-314.964844c5.699218-10.5 20.699218-10.5 26.398437 0l46.792969 87.890625 34.195312 62.691406zm0 0" fill="#eebf00"/><path d="m360.085938 285.042969h-68.691407l-35.394531-63.289063v-125.988281l34.195312 62.691406zm0 0" fill="#dc9e00"/><path d="m425.480469 450.027344h-338.960938c-11.398437 0-18.898437-12.300782-13.199219-22.199219l148.484376-269.070313 34.195312 62.992188-94.191406 168.28125h188.382812l-25.199218-44.992188h68.09375l45.59375 82.789063c5.699218 9.898437-1.796876 22.199219-13.199219 22.199219zm0 0" fill="#ffda2d"/><path d="m425.480469 450.027344h-169.480469v-59.996094h94.191406l-25.199218-44.992188h68.09375l45.59375 82.789063c5.699218 9.898437-1.796876 22.199219-13.199219 22.199219zm0 0" fill="#eebf00"/></svg>